<svg xmlns='http://www.w3.org/2000/svg' style='font-size:initial;' viewBox="0 0 678.889 668.262" data-pikchr-date="20250319161943">
<path d="M6.48,661.782L573.409,661.782L573.409,94.8529L6.48,94.8529Z"  style="fill:none;stroke-width:3.24;stroke:rgb(0,0,0);" />
<circle cx="119.866" cy="94.8529" r="2.16" style="fill:rgb(0,0,0);stroke-width:2.16;stroke:rgb(0,0,0);" />
<circle cx="573.409" cy="208.239" r="2.16" style="fill:rgb(0,0,0);stroke-width:2.16;stroke:rgb(0,0,0);" />
<circle cx="460.023" cy="661.782" r="2.16" style="fill:rgb(0,0,0);stroke-width:2.16;stroke:rgb(0,0,0);" />
<circle cx="6.48" cy="548.396" r="2.16" style="fill:rgb(0,0,0);stroke-width:2.16;stroke:rgb(0,0,0);" />
<path d="M119.866,94.8529L573.409,208.239"  style="fill:none;stroke-width:3.24;stroke:rgb(0,0,0);stroke-dasharray:3.24,7.2;" />
<text x="346.637" y="164.056" text-anchor="middle" fill="rgb(0,0,0)" transform="rotate(14.03624347 346.637,151.546)" dominant-baseline="central">line to be drawn</text>
<path d="M573.409,208.239L460.023,661.782"  style="fill:none;stroke-width:3.24;stroke:rgb(0,0,0);stroke-dasharray:3.24,7.2;" />
<path d="M460.023,661.782L6.48,548.396"  style="fill:none;stroke-width:3.24;stroke:rgb(0,0,0);stroke-dasharray:3.24,7.2;" />
<path d="M6.48,548.396L119.866,94.8529"  style="fill:none;stroke-width:3.24;stroke:rgb(0,0,0);stroke-dasharray:3.24,7.2;" />
<text x="131.204" y="83.5143" text-anchor="middle" fill="rgb(0,0,0)" dominant-baseline="central">A</text>
<text x="584.748" y="219.577" text-anchor="middle" fill="rgb(0,0,0)" dominant-baseline="central">B</text>
<text x="233.252" y="106.191" text-anchor="middle" fill="rgb(0,0,0)" dominant-baseline="central">θ</text>
<path d="M6.48,38.16L6.48,2.16"  style="fill:none;stroke-width:1.4472;stroke:rgb(128,128,128);" />
<path d="M573.409,38.16L573.409,2.16"  style="fill:none;stroke-width:1.4472;stroke:rgb(128,128,128);" />
<text x="289.945" y="20.16" text-anchor="middle" fill="rgb(128,128,128)" dominant-baseline="central">10cm</text>
<polygon points="6.48,20.16 14.1984,17.2656 14.1984,23.0544" style="fill:rgb(128,128,128)"/>
<path d="M261.317,20.16L10.3392,20.16"  style="fill:none;stroke-width:1.4472;stroke:rgb(128,128,128);" />
<polygon points="573.409,20.16 565.691,23.0544 565.691,17.2656" style="fill:rgb(128,128,128)"/>
<path d="M318.572,20.16L569.55,20.16"  style="fill:none;stroke-width:1.4472;stroke:rgb(128,128,128);" />
<path d="M6.48,83.5143L6.48,47.5143"  style="fill:none;stroke-width:1.4472;stroke:rgb(128,128,128);" />
<path d="M119.866,83.5143L119.866,47.5143"  style="fill:none;stroke-width:1.4472;stroke:rgb(128,128,128);" />
<text x="63.1729" y="65.5143" text-anchor="middle" fill="rgb(128,128,128)" dominant-baseline="central">2cm</text>
<polygon points="6.48,65.5143 14.1984,62.6199 14.1984,68.4087" style="fill:rgb(128,128,128)"/>
<path d="M39.7873,65.5143L10.3392,65.5143"  style="fill:none;stroke-width:1.4472;stroke:rgb(128,128,128);" />
<polygon points="119.866,65.5143 112.147,68.4087 112.147,62.6199" style="fill:rgb(128,128,128)"/>
<path d="M86.5585,65.5143L116.007,65.5143"  style="fill:none;stroke-width:1.4472;stroke:rgb(128,128,128);" />
<path d="M630.102,94.8529L666.102,94.8529"  style="fill:none;stroke-width:1.4472;stroke:rgb(128,128,128);" />
<path d="M630.102,661.782L666.102,661.782"  style="fill:none;stroke-width:1.4472;stroke:rgb(128,128,128);" />
<text x="648.102" y="378.317" text-anchor="middle" fill="rgb(128,128,128)" dominant-baseline="central">10cm</text>
<polygon points="648.102,94.8529 650.996,102.571 645.208,102.571" style="fill:rgb(128,128,128)"/>
<path d="M648.102,363.197L648.102,98.7121"  style="fill:none;stroke-width:1.4472;stroke:rgb(128,128,128);" />
<polygon points="648.102,661.782 645.208,654.064 650.996,654.064" style="fill:rgb(128,128,128)"/>
<path d="M648.102,393.437L648.102,657.923"  style="fill:none;stroke-width:1.4472;stroke:rgb(128,128,128);" />
<path d="M584.748,94.8529L620.748,94.8529"  style="fill:none;stroke-width:1.4472;stroke:rgb(128,128,128);" />
<path d="M584.748,208.239L620.748,208.239"  style="fill:none;stroke-width:1.4472;stroke:rgb(128,128,128);" />
<text x="602.748" y="151.546" text-anchor="middle" fill="rgb(128,128,128)" dominant-baseline="central">2cm</text>
<polygon points="602.748,94.8529 605.642,102.571 599.853,102.571" style="fill:rgb(128,128,128)"/>
<path d="M602.748,136.426L602.748,98.7121"  style="fill:none;stroke-width:1.4472;stroke:rgb(128,128,128);" />
<polygon points="602.748,208.239 599.853,200.52 605.642,200.52" style="fill:rgb(128,128,128)"/>
<path d="M602.748,166.666L602.748,204.38"  style="fill:none;stroke-width:1.4472;stroke:rgb(128,128,128);" />
</svg>
